<svg id="full" xmlns="http://www.w3.org/2000/svg" viewBox="0 0 205.52 205.52"><defs><style>.cls-1{fill:#23446e;}.cls-1,.cls-2,.cls-3{fill-rule:evenodd;}.cls-2{fill:#1474a4;}.cls-3{fill:#26abe0;}</style></defs><path class="cls-1" d="M114.73,71A41.7,41.7,0,0,1,101,86.57c.27.25.53.51.79.77A143.23,143.23,0,0,1,133,133.81a142.69,142.69,0,0,1,11,54.81h20.75a163,163,0,0,0-11-58.82A33.81,33.81,0,0,0,171,134.52c19.06,0,34.51-15.8,34.51-35.29S190.07,64,171,64c-18.32,0-33.31,14.59-34.45,33a164.05,164.05,0,0,0-20.08-24.23ZM42.34,30.25A165.35,165.35,0,0,0,0,24.74V45.39A144.56,144.56,0,0,1,36.14,50,41.34,41.34,0,0,1,42.34,30.25Z"/><path class="cls-2" d="M113,52.19A35.3,35.3,0,0,1,81,87.32a128.73,128.73,0,0,1,11.08,9.82A129.27,129.27,0,0,1,104.18,111h-.64a34.36,34.36,0,0,0-19.63,6.13c-1.83-2.12-3.75-4.18-5.74-6.16A110.58,110.58,0,0,0,42.3,87.15,111.12,111.12,0,0,0,0,78.79V59.24a131,131,0,0,1,45.87,8.3A35.3,35.3,0,1,1,113,52.19Zm-2.81,127.17c.26,3.08.39,6.16.39,9.26h19.68a127.48,127.48,0,0,0-1.5-19.53A34.36,34.36,0,0,1,110.15,179.36Z"/><path class="cls-3" d="M92.53,171.49a92.71,92.71,0,0,1,1.6,17.13H73.76a72.51,72.51,0,0,0-5.62-28,73,73,0,0,0-16-23.72,73.82,73.82,0,0,0-23.92-15.84A74.23,74.23,0,0,0,0,115.51V95.31a94.92,94.92,0,0,1,36,7.11,94.06,94.06,0,0,1,30.53,20.22,93.44,93.44,0,0,1,10.66,12.62,28.23,28.23,0,1,1,15.31,36.23Z"/></svg>